<svg width="311" height="415" viewBox="0 0 311 415" fill="none" xmlns="http://www.w3.org/2000/svg">
<path d="M95.6415 36.824C76.4505 79.0461 104.273 113.483 119.069 130.794C95.6416 130.794 56.1846 82.5724 95.6415 36.824Z" fill="#620250"/>
<path d="M117.3 19.7788C84.6844 37.78 65.292 87.0994 63.5829 106.065C58.7993 85.6866 14.6728 60.3164 117.3 19.7788Z" fill="#FF1DD6"/>
<path d="M93.5871 89.9912C115.782 122.139 135.787 127.607 155.238 133.283C131.68 134.14 117.015 142.746 93.5871 89.9912Z" fill="#0DF7FF"/>
<path d="M158.734 133.534C186.559 107.116 180.88 61.9108 174.562 42.6103C188.575 61.6187 205.027 106.415 158.734 133.534Z" fill="#3C9699"/>
<path d="M133.02 145.677C67.8018 166.314 50.201 246.152 49.5529 283.492C0.698621 264.33 34.8003 152.049 133.02 145.677Z" fill="#8563FF"/>
<path d="M86.1594 178.451C43.852 223.078 60.8788 294.28 74.6806 324.303C12.2072 283.7 12.9808 225.98 86.1594 178.451Z" fill="#483198"/>
<path d="M66.8712 282.464C100.47 334.003 172.273 336.57 204.582 329.994C170.492 349.401 76.3246 362.009 66.8712 282.464Z" fill="#7F5DFD"/>
<path d="M185.537 318.426C246.891 320.924 248.42 237.95 273.609 202.507C234.929 277.186 246.893 350.056 185.537 318.426Z" fill="#4DDEEE"/>
<path d="M149.971 149.769C149.971 210.499 203.685 385.396 230.162 405.094C192.979 392.646 125.972 231.323 149.971 149.769Z" fill="#963198"/>
<path d="M140.801 158.625C135.099 195.105 178.951 268.315 202.504 275.474C168.637 273.913 89.4768 217.773 140.801 158.625Z" fill="#460147"/>
<path d="M180.721 95.7774C172.923 58.1564 153.594 34.7795 111.26 25.3001C118.658 6.34131 203.326 25.3001 180.721 95.7774Z" fill="#0DF7FF"/>
</svg>
